<svg width="300" height="300" viewBox="0 0 300 300" fill="none" xmlns="http://www.w3.org/2000/svg">
<path fill-rule="evenodd" clip-rule="evenodd" d="M282.605 133.264L294.903 144.125C301.157 149.661 301.74 159.284 296.175 165.532L265.907 199.408L242.794 182.562L244.252 153.379L261.109 134.529C266.676 128.281 276.35 127.728 282.605 133.264Z" fill="#838383"/>
<path fill-rule="evenodd" clip-rule="evenodd" d="M244.252 153.379L265.906 199.408L275.368 219.576C282.392 234.498 277.33 249.604 271.711 255.878L260.791 268.084C252.548 277.337 245.71 274.569 239.084 264.577L175.34 170.831L184.299 128.572L229.516 122.007L244.252 153.379Z" fill="#ACACAC"/>
<path fill-rule="evenodd" clip-rule="evenodd" d="M127.898 213.591L151.354 260.517C157.106 272.038 152.865 283.98 148.492 288.884L142.501 295.58C136.061 302.803 130.707 300.668 125.539 292.838L88.1411 249.419L96.9932 224.031L127.898 213.591Z" fill="#ACACAC"/>
<path fill-rule="evenodd" clip-rule="evenodd" d="M37.5169 159.917L86.3651 177L86.1534 210.27L55.6463 219.971L8.28248 189.205C-0.11942 185.014 -2.90242 179.978 3.56494 172.781L9.55515 166.059C13.9274 161.182 25.3248 155.645 37.5169 159.917Z" fill="#ACACAC"/>
<path fill-rule="evenodd" clip-rule="evenodd" d="M126.069 0C129.673 0 133.278 1.23893 136.141 3.79612L148.439 14.6577C154.72 20.1937 155.276 29.8431 149.711 36.0645L132.881 54.9141H96.9933L84.377 38.9381L114.646 5.0618C117.64 1.71402 121.829 0 126.016 0H126.069Z" fill="#838383"/>
<path fill-rule="evenodd" clip-rule="evenodd" d="M84.377 38.9381L132.881 54.9141L165.905 65.7757L160.074 108.22L123.551 125.039L22.4354 73.0774C11.6748 67.6991 8.12316 61.2933 16.3923 52.0396L27.3126 39.8339C32.9056 33.5599 47.4035 26.7841 63.1203 31.9511L84.377 38.9381Z" fill="#ACACAC"/>
<path fill-rule="evenodd" clip-rule="evenodd" d="M224.003 9.64819C240.251 4.85023 261.745 1.6602 271.976 10.8078C282.313 19.8235 281.624 41.4147 278.735 58.0236C278.311 60.5014 277.701 63.0328 276.854 65.6158C273.09 77.3732 265.006 89.9488 251.33 102.366L229.516 122.006L175.34 170.83L88.0603 249.338L84.3499 252.817C79.0494 257.194 73.6951 259.408 68.7919 259.909C52.2527 261.596 40.7234 243.801 52.3594 224.556L55.6455 219.97L123.55 125.037L165.905 65.7735L182.975 41.9415C196.094 23.6998 210.459 13.6556 224.003 9.64819Z" fill="#ECECEC"/>
<path fill-rule="evenodd" clip-rule="evenodd" d="M211.387 104.159L157.212 152.983L69.9318 231.491L66.2214 234.971C60.894 239.347 55.5666 241.561 50.6634 242.062C49.6562 242.167 48.676 242.194 47.7217 242.167C48.7019 253.266 57.6079 261.043 68.7928 259.91C73.696 259.409 79.0503 257.195 84.3508 252.819L88.0612 249.339L175.341 170.831L229.517 122.007L251.33 102.367C265.007 89.9499 273.09 77.3752 276.855 65.6169C277.703 63.0329 278.312 60.5025 278.736 58.0247C281.625 41.4158 282.315 19.8245 271.977 10.8089C269.062 8.19909 265.245 6.59116 260.872 5.74707C263.444 16.0026 262.515 29.1834 260.607 40.2036C260.183 42.6815 259.573 45.1861 258.725 47.7701C254.962 59.5274 246.878 72.103 233.201 84.52L211.387 104.159Z" fill="#CECECE"/>
<path fill-rule="evenodd" clip-rule="evenodd" d="M252.363 252.635L188.593 158.889L175.34 170.831L239.084 264.578C245.71 274.569 252.548 277.337 260.791 268.084L266.754 261.414C261.587 262.995 256.922 259.543 252.363 252.635Z" fill="#838383"/>
<path fill-rule="evenodd" clip-rule="evenodd" d="M285.309 155.909L259.202 185.145L265.908 199.407L296.176 165.531C301.742 159.283 301.159 149.66 294.903 144.124L284.09 134.554V134.581C290.292 140.118 290.848 149.715 285.309 155.909Z" fill="#595959"/>
<path fill-rule="evenodd" clip-rule="evenodd" d="M117.527 49.7604L132.881 54.9145L149.711 36.0649C155.277 29.8435 154.72 20.194 148.439 14.6581L140.01 7.19775C146.239 12.7605 143.846 21.3149 138.174 27.4579L117.527 49.7604Z" fill="#595959"/>
<path fill-rule="evenodd" clip-rule="evenodd" d="M133.251 111.435L32.1629 59.474C24.6355 55.7304 20.6336 51.4592 21.7467 46.0552L16.3923 52.0395C8.12316 61.2932 11.6748 67.699 22.4354 73.0773L123.551 125.038L133.251 111.435Z" fill="#838383"/>
<path fill-rule="evenodd" clip-rule="evenodd" d="M136.909 282.582L99.5117 239.163L88.1411 249.418L125.539 292.838C130.708 300.667 136.061 302.803 142.501 295.579L147.909 289.543C143.986 290.57 140.408 287.855 136.909 282.582Z" fill="#838383"/>
<path fill-rule="evenodd" clip-rule="evenodd" d="M64.5782 207.475L17.2413 176.709C11.5695 173.862 8.46813 170.672 9.0251 166.665L3.56494 172.781C-2.90242 179.979 -0.11942 185.014 8.28248 189.206L55.6463 219.971L64.5782 207.475Z" fill="#838383"/>
<path d="M223.444 31.8061C219.583 32.128 216.716 35.4979 217.039 39.3346C217.363 43.1723 220.751 46.0302 224.616 45.6999C231.655 45.1326 240.98 53.6354 241.838 61.4195C242.232 64.9896 245.271 67.6335 248.803 67.6335C249.058 67.6335 249.316 67.6196 249.575 67.591C253.427 67.1722 256.207 63.7294 255.786 59.9029C254.089 44.5044 238.074 30.5736 223.444 31.8061Z" fill="#696C73"/>
</svg>
