<svg width="984" height="512" viewBox="0 0 984 512" fill="none" xmlns="http://www.w3.org/2000/svg">
<g clip-path="url(#clip0_575_2961)">
<path fill-rule="evenodd" clip-rule="evenodd" d="M503.929 306.615C501.302 343.537 489.196 377.887 470.009 407.15C432.263 464.848 367.107 502.941 293.071 502.941C247.13 502.941 204.616 488.195 169.954 463.19C116.504 424.639 81.6699 361.683 81.6699 290.812L209.242 113.261L305.806 80.1968C330.761 81.6828 354.516 87.4838 376.387 96.8858C383.24 99.8288 389.921 103.144 396.402 106.774C460.873 143.01 504.444 212.081 504.444 291.355C504.443 296.499 504.271 301.585 503.929 306.615Z" fill="#A6E7F0"/>
<path fill-rule="evenodd" clip-rule="evenodd" d="M396.401 106.774C460.872 143.01 504.443 212.081 504.443 291.355C504.443 296.499 504.272 301.586 503.929 306.615C499.104 338.85 443.398 335.764 440.457 307.672C437.745 281.809 413.903 281.152 402.939 280.066C375.929 277.323 363.68 258.004 398.171 212.681C426.895 174.93 321.565 136.608 376.386 96.8857C383.238 99.8287 389.92 103.144 396.401 106.774Z" fill="#80D261"/>
<path fill-rule="evenodd" clip-rule="evenodd" d="M312 153.526L325.248 165.3C331.986 171.301 332.614 181.732 326.619 188.505L294.012 225.227L269.114 206.966L270.684 175.331L288.843 154.898C294.841 148.125 305.262 147.525 312 153.526Z" fill="#838383"/>
<path fill-rule="evenodd" clip-rule="evenodd" d="M270.685 175.331L294.012 225.227L304.205 247.089C311.771 263.264 306.318 279.639 300.265 286.44L288.501 299.671C279.621 309.702 272.255 306.701 265.117 295.87L196.449 194.249L206.1 148.44L254.81 141.324L270.685 175.331Z" fill="#ACACAC"/>
<path fill-rule="evenodd" clip-rule="evenodd" d="M145.341 240.601L170.61 291.469C176.806 303.957 172.237 316.903 167.526 322.218L161.073 329.477C154.135 337.307 148.367 334.992 142.8 326.505L102.513 279.438L112.049 251.918L145.341 240.601Z" fill="#ACACAC"/>
<path fill-rule="evenodd" clip-rule="evenodd" d="M47.9779 182.418L100.6 200.936L100.372 237.001L67.5079 247.517L16.4849 214.167C7.43385 209.623 4.43585 204.165 11.4029 196.363L17.8559 189.076C22.5659 183.79 34.8439 177.788 47.9779 182.418Z" fill="#ACACAC"/>
<path fill-rule="evenodd" clip-rule="evenodd" d="M352.573 401.692C371.389 370.4 429.35 363.255 470.008 407.15C432.262 464.848 367.106 502.941 293.07 502.941C247.129 502.941 204.615 488.195 169.953 463.19C168.04 405.207 214.837 390.175 252.555 421.353C268.801 434.756 328.846 441.243 352.573 401.692Z" fill="#80D261"/>
<path fill-rule="evenodd" clip-rule="evenodd" d="M143.371 9.06787C147.254 9.06787 151.137 10.4109 154.221 13.1829L167.469 24.9569C174.236 30.9579 174.835 41.4179 168.84 48.1619L150.709 68.5949H112.049L98.458 51.2769L131.065 14.5549C134.291 10.9259 138.803 9.06787 143.314 9.06787H143.371Z" fill="#838383"/>
<path fill-rule="evenodd" clip-rule="evenodd" d="M98.4576 51.277L150.709 68.595L186.285 80.369L180.003 126.379L140.658 144.611L31.7306 88.284C20.1386 82.454 16.3126 75.51 25.2206 65.479L36.9846 52.248C43.0096 45.447 58.6276 38.102 75.5586 43.703L98.4576 51.277Z" fill="#ACACAC"/>
<path fill-rule="evenodd" clip-rule="evenodd" d="M248.871 19.5269C266.374 14.3259 289.529 10.8679 300.551 20.7839C311.686 30.5569 310.944 53.9619 307.832 71.9659C307.375 74.6519 306.718 77.3959 305.805 80.1959C301.751 92.9409 293.042 106.573 278.309 120.033L254.81 141.323L196.449 194.248L102.426 279.351L98.4286 283.123C92.7186 287.867 86.9506 290.267 81.6686 290.81C63.8516 292.639 51.4316 273.349 63.9666 252.488L67.5066 247.516L140.658 144.609L186.285 80.3669L204.673 54.5329C218.806 34.7589 234.281 23.8709 248.871 19.5269Z" fill="#ECECEC"/>
<path fill-rule="evenodd" clip-rule="evenodd" d="M235.281 121.977L176.92 174.902L82.8967 260.005L78.8997 263.777C73.1607 268.521 67.4217 270.921 62.1397 271.464C61.0547 271.578 59.9987 271.607 58.9707 271.578C60.0267 283.609 69.6207 292.039 81.6697 290.811C86.9517 290.268 92.7197 287.868 98.4297 283.124L102.427 279.352L196.45 194.249L254.811 141.324L278.31 120.034C293.043 106.574 301.751 92.9429 305.806 80.1969C306.72 77.3959 307.376 74.6529 307.833 71.9669C310.945 53.9629 311.688 30.5579 300.552 20.7849C297.411 17.9559 293.3 16.2129 288.589 15.2979C291.359 26.4149 290.359 40.7028 288.303 52.6488C287.846 55.3348 287.189 58.0499 286.276 60.8509C282.222 73.5959 273.513 87.2279 258.78 100.688L235.281 121.977Z" fill="#CECECE"/>
<path fill-rule="evenodd" clip-rule="evenodd" d="M279.422 282.924L210.725 181.303L196.449 194.249L265.117 295.87C272.255 306.701 279.622 309.701 288.501 299.671L294.925 292.441C289.359 294.155 284.333 290.412 279.422 282.924Z" fill="#838383"/>
<path fill-rule="evenodd" clip-rule="evenodd" d="M314.913 178.074L286.789 209.766L294.013 225.226L326.62 188.504C332.616 181.731 331.988 171.3 325.249 165.299L313.6 154.925V154.954C320.281 160.956 320.88 171.359 314.913 178.074Z" fill="#595959"/>
<path fill-rule="evenodd" clip-rule="evenodd" d="M134.169 63.0076L150.709 68.5946L168.84 48.1616C174.836 41.4176 174.236 30.9576 167.469 24.9566L158.389 16.8696C165.099 22.8996 162.521 32.1726 156.411 38.8316L134.169 63.0076Z" fill="#595959"/>
<path fill-rule="evenodd" clip-rule="evenodd" d="M151.108 129.864L42.2096 73.5377C34.1006 69.4797 29.7896 64.8497 30.9886 58.9917L25.2206 65.4787C16.3126 75.5097 20.1386 82.4537 31.7306 88.2837L140.658 144.61L151.108 129.864Z" fill="#838383"/>
<path fill-rule="evenodd" clip-rule="evenodd" d="M155.049 315.388L114.762 268.321L102.513 279.438L142.8 326.505C148.368 334.992 154.135 337.307 161.073 329.477L166.898 322.933C162.672 324.047 158.818 321.104 155.049 315.388Z" fill="#838383"/>
<path fill-rule="evenodd" clip-rule="evenodd" d="M77.1299 233.971L26.1359 200.621C20.0259 197.535 16.6849 194.077 17.2849 189.733L11.4029 196.363C4.43585 204.165 7.43385 209.623 16.4849 214.167L67.5079 247.517L77.1299 233.971Z" fill="#838383"/>
<path fill-rule="evenodd" clip-rule="evenodd" d="M504.443 291.355C504.443 212.081 460.872 143.01 396.401 106.774C392.946 104.831 389.406 102.973 385.808 101.201C420.385 146.982 441.799 210.481 441.799 280.667C441.799 290.24 441.399 299.671 440.628 308.93C445.054 335.85 499.189 338.365 503.928 306.615C504.271 301.585 504.443 296.499 504.443 291.355Z" fill="#4FC122"/>
<path fill-rule="evenodd" clip-rule="evenodd" d="M503.929 306.615C499.189 338.364 445.054 335.85 440.629 308.93C438.545 333.764 433.805 357.483 426.753 379.573C441.714 383.974 456.79 392.861 470.01 407.15C489.196 377.887 501.302 343.537 503.929 306.615Z" fill="#6BD9E7"/>
<path fill-rule="evenodd" clip-rule="evenodd" d="M426.752 379.573C411.705 426.84 386.179 466.705 354.115 493.997C402.197 479.48 443.084 448.302 470.009 407.151C456.789 392.861 441.713 383.974 426.752 379.573Z" fill="#4FC122"/>
<path d="M512 291.354C512 212.23 469.124 138.979 400.102 100.184C373.718 85.3649 345.212 76.3829 315.252 73.3889C315.26 73.3439 315.271 73.2989 315.279 73.2539C318.675 53.6069 319.742 27.5719 305.606 15.1659C290.79 1.83292 262.352 7.63792 246.715 12.2829C229.151 17.5119 212.486 30.6029 198.513 50.1559L183.381 71.4449L163.982 65.0209L174.488 53.1819C178.736 48.4039 180.865 42.2369 180.484 35.8179C180.103 29.4049 177.262 23.5399 172.49 19.3059L159.247 7.53992C154.479 3.29292 148.32 1.16692 141.915 1.54492C135.517 1.92692 129.658 4.76292 125.414 9.53692L96.1041 42.5459L77.9331 36.5289C56.8711 29.5629 38.5221 39.1159 31.3371 47.2269L19.5711 60.4619C14.1031 66.6189 11.9051 72.7419 13.0401 78.6639C14.2781 85.1269 19.2821 90.4829 28.2601 94.9979L129.448 147.323L97.7471 191.922L50.4901 175.29C33.4751 169.29 18.2781 177.241 12.1971 184.066L5.7651 191.329C1.1251 196.525 -0.728899 201.779 0.256101 206.943C1.7751 214.916 9.5981 219.152 12.7061 220.725L56.9041 249.614C46.7161 267.469 51.6621 283.655 61.2641 291.897C64.6101 294.769 69.0631 297.085 74.2431 298.05C75.0831 324.133 80.4501 349.522 90.2601 373.619C91.4541 376.552 94.2801 378.329 97.2621 378.329C98.2111 378.329 99.1751 378.149 100.108 377.77C103.973 376.196 105.832 371.787 104.258 367.922C95.0471 345.294 90.0401 321.436 89.3261 296.92C93.3321 295.603 97.5031 293.422 101.738 290.155L136.749 331.058C138.692 333.993 143.79 341.206 151.845 341.789C152.197 341.814 152.547 341.827 152.897 341.827C157.763 341.827 162.411 339.363 166.722 334.499L173.182 327.231C179.266 320.367 185.404 304.285 177.378 288.107L154.65 242.353L195.07 205.705L219.712 242.175C221.172 244.336 223.555 245.501 225.981 245.501C227.437 245.501 228.908 245.081 230.205 244.205C233.663 241.868 234.573 237.171 232.236 233.712L206.382 195.448L252.304 153.812L263.784 178.393C263.832 178.501 263.881 178.608 263.934 178.714L297.362 250.291C303.859 264.18 298.322 277.258 294.619 281.418L282.844 294.661C280.266 297.574 278.564 298.315 277.953 298.238C277.087 298.177 274.739 296.733 271.38 291.637L250.536 260.802C248.2 257.345 243.501 256.437 240.043 258.773C236.585 261.11 235.677 265.808 238.014 269.267L258.809 300.029C264.394 308.502 270.305 312.848 276.881 313.315C277.268 313.343 277.652 313.357 278.037 313.357C283.641 313.356 289.06 310.443 294.15 304.692L305.911 291.464C313.13 283.353 320.455 263.989 311.053 243.891L302.95 226.542L332.277 193.515C341.032 183.627 340.134 168.438 330.269 159.651L317.027 147.883C312.253 143.63 306.095 141.494 299.687 141.879C293.283 142.259 287.423 145.104 283.196 149.878L272.674 161.717L264.021 143.188L283.384 125.632C283.391 125.626 283.397 125.62 283.404 125.614C296.268 113.867 305.575 101.128 310.916 88.1479C328.592 89.6699 345.731 93.4339 362.184 99.3819C356.855 105.275 353.812 111.54 352.979 118.335C350.855 135.65 363.767 150.989 376.254 165.824C393.418 186.216 400.583 197.033 392.158 208.106C372.318 234.177 365.471 254.797 371.806 269.393C374.936 276.604 382.746 285.613 402.195 287.589C402.824 287.652 403.494 287.712 404.2 287.776C418.337 289.061 431.173 291.61 432.941 308.46C434.672 324.991 450.361 336.858 471.093 337.317C471.465 337.325 471.838 337.33 472.212 337.33C479.196 337.33 486.361 335.881 492.646 332.836C488.032 355.113 479.77 376.066 468.528 395.054C447.427 375.824 421.227 366.422 395.349 369.1C373.668 371.338 355.716 381.798 346.092 397.805C335.976 414.666 318.881 420.781 306.322 422.942C284.744 426.653 264.024 421.02 257.368 415.53C236.259 398.081 211.052 393.18 191.587 402.739C175.635 410.573 165.618 426.799 163.019 448.309C147.261 435.162 133.327 419.524 121.825 401.685C119.564 398.177 114.888 397.168 111.378 399.428C107.871 401.69 106.86 406.367 109.122 409.875C149.746 472.883 218.51 510.5 293.069 510.5C351.553 510.5 406.534 487.704 447.883 446.31C485.346 408.808 507.558 360.106 511.399 307.746C511.4 307.742 511.4 307.739 511.401 307.736C511.463 307.322 511.481 306.912 511.475 306.506C511.817 301.484 512 296.434 512 291.354ZM294.503 159.907C296.058 158.151 298.217 157.106 300.582 156.965C302.946 156.82 305.221 157.607 306.98 159.174L320.222 170.942C323.875 174.196 324.207 179.828 320.967 183.487L295.982 211.624L279.638 176.63L294.503 159.907ZM136.713 19.5759C138.274 17.8199 140.441 16.7739 142.814 16.6329C145.185 16.4749 147.448 17.2709 149.201 18.8319L162.455 30.6099C164.21 32.1669 165.255 34.3349 165.396 36.7139C165.538 39.0999 164.755 41.3819 163.187 43.1459L148.365 59.8499L111.724 47.7169L136.713 19.5759ZM35.1271 81.5329C28.5151 78.2079 27.9301 76.0539 27.8851 75.8199C27.7701 75.2219 28.2711 73.4279 30.8701 70.5019L42.6431 57.2589C46.3281 53.0999 58.6421 46.0659 73.1851 50.8789L148.035 75.6639C148.161 75.7119 148.289 75.7499 148.417 75.7909L174.22 84.3349L138.293 134.88L35.1271 81.5329ZM19.8761 207.414C16.5531 205.746 15.4721 204.558 15.1701 204.143C15.2971 203.781 15.7171 202.88 17.0611 201.373L23.4981 194.104C26.1111 191.172 35.2711 185.949 45.4701 189.547L88.6391 204.738L65.5561 237.213L20.6211 207.843C20.3801 207.685 20.1311 207.542 19.8761 207.414ZM163.84 294.827C168.637 304.497 164.496 314.243 161.878 317.197L155.417 324.466C154.092 325.961 153.247 326.482 152.901 326.651C152.452 326.396 151.15 325.457 149.119 322.36C148.943 322.092 148.75 321.835 148.542 321.592L113.023 280.096L143.015 252.903L163.84 294.827ZM273.215 114.451L249.924 135.568C249.794 135.679 249.667 135.793 249.546 135.911L93.4801 277.411C89.2961 280.856 85.0071 282.828 81.0561 283.285C80.9701 283.292 80.8841 283.298 80.7991 283.308C77.1501 283.671 73.7981 282.738 71.1071 280.428C66.1811 276.2 64.0461 267.215 70.3031 256.619L146.718 149.113C146.775 149.036 146.83 148.959 146.884 148.879L210.82 58.9279C222.81 42.1509 236.714 31.0299 251.023 26.7709C271.833 20.5859 288.876 20.4449 295.565 26.4639C302.24 32.3219 304.086 49.2639 300.382 70.6899C297.866 85.3859 288.471 100.518 273.215 114.451ZM471.428 322.206C460.544 321.965 448.993 316.625 447.973 306.884C444.764 276.285 417.297 273.788 405.569 272.722C404.906 272.661 404.276 272.604 403.703 272.547C396.998 271.867 388.426 269.722 385.671 263.372C381.844 254.556 388.592 237.746 404.186 217.255C420.859 195.342 402.538 173.577 387.817 156.088C377.415 143.731 366.659 130.952 367.981 120.173C368.585 115.248 371.707 110.461 377.47 105.619C382.624 107.975 387.703 110.555 392.699 113.361C456.964 149.481 496.886 217.684 496.886 291.353C496.886 296.304 496.699 301.212 496.351 306.076C494.149 318.322 481.629 322.441 471.428 322.206ZM293.07 495.384C251.008 495.384 210.936 482.497 177.461 459.296C177.595 438.34 185.069 422.777 198.251 416.304C212.311 409.396 231.274 413.565 247.745 427.182C259.851 437.169 286.137 441.747 308.884 437.836C324.561 435.139 345.99 427.354 359.049 405.586C366.092 393.873 380.243 385.852 396.901 384.133C419.199 381.825 441.974 390.477 460.213 407.969C423.339 460.774 362.171 495.384 293.07 495.384Z" fill="#696C73"/>
<path d="M248.269 43.5458C244.11 43.8948 241.021 47.5478 241.369 51.7068C241.718 55.8668 245.368 58.9648 249.531 58.6068C257.114 57.9918 267.16 67.2088 268.084 75.6468C268.508 79.5168 271.782 82.3828 275.587 82.3828C275.862 82.3828 276.14 82.3678 276.419 82.3368C280.568 81.8828 283.563 78.1508 283.109 74.0028C281.281 57.3108 264.029 42.2098 248.269 43.5458Z" fill="#696C73"/>
</g>
<path d="M778.219 456C771.952 456 767.152 454.4 763.819 451.2C760.619 447.867 759.019 443.133 759.019 437V334C759.019 327.867 760.619 323.2 763.819 320C767.152 316.667 771.952 315 778.219 315H846.019C850.819 315 854.419 316.2 856.819 318.6C859.219 321 860.419 324.467 860.419 329C860.419 333.667 859.219 337.267 856.819 339.8C854.419 342.2 850.819 343.4 846.019 343.4H794.219V370.2H841.619C846.285 370.2 849.819 371.4 852.219 373.8C854.752 376.2 856.019 379.733 856.019 384.4C856.019 389.067 854.752 392.6 852.219 395C849.819 397.4 846.285 398.6 841.619 398.6H794.219V427.6H846.019C850.819 427.6 854.419 428.867 856.819 431.4C859.219 433.8 860.419 437.267 860.419 441.8C860.419 446.467 859.219 450 856.819 452.4C854.419 454.8 850.819 456 846.019 456H778.219Z" fill="white"/>
<path d="M660.626 456C654.76 456 650.16 454.4 646.826 451.2C643.626 447.866 642.026 443.266 642.026 437.4V333.4C642.026 327.4 643.626 322.8 646.826 319.6C650.026 316.4 654.56 314.8 660.426 314.8C666.426 314.8 670.96 316.4 674.026 319.6C677.226 322.8 678.826 327.4 678.826 333.4V425.4H727.626C732.693 425.4 736.56 426.733 739.226 429.4C742.026 431.933 743.426 435.666 743.426 440.6C743.426 445.533 742.026 449.333 739.226 452C736.56 454.666 732.693 456 727.626 456H660.626Z" fill="white"/>
<path d="M598.122 457.8C592.255 457.8 587.722 456.2 584.522 453C581.322 449.667 579.722 445 579.722 439V332C579.722 325.867 581.322 321.2 584.522 318C587.722 314.8 592.255 313.2 598.122 313.2C604.122 313.2 608.655 314.8 611.722 318C614.922 321.2 616.522 325.867 616.522 332V439C616.522 445 614.988 449.667 611.922 453C608.855 456.2 604.255 457.8 598.122 457.8Z" fill="white"/>
<path d="M440.895 457.8C435.028 457.8 430.495 456.2 427.295 453C424.095 449.667 422.495 445 422.495 439V332C422.495 325.867 424.095 321.2 427.295 318C430.495 314.8 435.028 313.2 440.895 313.2C446.895 313.2 451.428 314.8 454.495 318C457.695 321.2 459.295 325.867 459.295 332V369.4H517.495V332C517.495 325.867 519.028 321.2 522.095 318C525.295 314.8 529.895 313.2 535.895 313.2C541.762 313.2 546.228 314.8 549.295 318C552.495 321.2 554.095 325.867 554.095 332V439C554.095 445 552.495 449.667 549.295 453C546.228 456.2 541.762 457.8 535.895 457.8C529.895 457.8 525.295 456.2 522.095 453C519.028 449.667 517.495 445 517.495 439V399.6H459.295V439C459.295 445 457.762 449.667 454.695 453C451.628 456.2 447.028 457.8 440.895 457.8Z" fill="white"/>
<path d="M356 458.2C340.4 458.2 327 455.2 315.8 449.2C304.6 443.2 296 434.733 290 423.8C284.134 412.866 281.2 400.066 281.2 385.4C281.2 374.466 282.867 364.533 286.2 355.6C289.667 346.666 294.6 339 301 332.6C307.534 326.2 315.4 321.333 324.6 318C333.934 314.533 344.4 312.8 356 312.8C362.134 312.8 368.467 313.533 375 315C381.667 316.333 387.534 318.4 392.6 321.2C396.334 323.2 398.934 325.733 400.4 328.8C401.867 331.866 402.334 335 401.8 338.2C401.4 341.4 400.267 344.266 398.4 346.8C396.534 349.333 394.134 351.066 391.2 352C388.267 352.8 385.067 352.333 381.6 350.6C377.6 348.733 373.6 347.333 369.6 346.4C365.734 345.333 361.667 344.8 357.4 344.8C349.134 344.8 342.2 346.4 336.6 349.6C331.134 352.666 327 357.2 324.2 363.2C321.4 369.2 320 376.6 320 385.4C320 394.2 321.4 401.666 324.2 407.8C327 413.8 331.134 418.4 336.6 421.6C342.2 424.666 349.134 426.2 357.4 426.2C360.867 426.2 364.6 425.8 368.6 425C372.6 424.066 376.534 422.666 380.4 420.8C384.4 419.066 387.934 418.6 391 419.4C394.2 420.2 396.734 421.8 398.6 424.2C400.6 426.6 401.867 429.4 402.4 432.6C402.934 435.666 402.467 438.733 401 441.8C399.667 444.866 397.267 447.333 393.8 449.2C389.134 452 383.334 454.2 376.4 455.8C369.6 457.4 362.8 458.2 356 458.2Z" fill="white"/>
<path d="M903.216 258.2C897.882 258.2 892.282 257.8 886.416 257C880.682 256.333 875.216 255.266 870.016 253.8C864.816 252.333 860.149 250.6 856.016 248.6C852.416 246.866 849.882 244.6 848.416 241.8C846.949 238.866 846.416 235.8 846.816 232.6C847.216 229.4 848.349 226.6 850.216 224.2C852.082 221.666 854.549 220 857.616 219.2C860.682 218.266 864.149 218.666 868.016 220.4C873.082 222.8 878.816 224.666 885.216 226C891.616 227.333 897.616 228 903.216 228C912.016 228 918.149 226.866 921.616 224.6C925.216 222.2 927.016 219.266 927.016 215.8C927.016 212.733 925.749 210.266 923.216 208.4C920.816 206.533 916.482 204.933 910.216 203.6L886.816 198.6C874.016 195.933 864.482 191.266 858.216 184.6C851.949 177.933 848.816 169.333 848.816 158.8C848.816 151.866 850.216 145.6 853.016 140C855.949 134.266 860.016 129.4 865.216 125.4C870.549 121.4 876.816 118.333 884.016 116.2C891.349 113.933 899.482 112.8 908.416 112.8C915.349 112.8 922.349 113.6 929.416 115.2C936.616 116.666 942.816 118.933 948.016 122C951.082 123.6 953.282 125.8 954.616 128.6C955.949 131.4 956.482 134.333 956.216 137.4C955.949 140.333 954.882 142.933 953.016 145.2C951.282 147.466 948.882 149 945.816 149.8C942.882 150.466 939.349 149.933 935.216 148.2C931.349 146.466 926.949 145.2 922.016 144.4C917.216 143.466 912.549 143 908.016 143C903.082 143 898.882 143.6 895.416 144.8C891.949 145.866 889.282 147.466 887.416 149.6C885.682 151.733 884.816 154.2 884.816 157C884.816 159.8 885.949 162.2 888.216 164.2C890.616 166.066 894.949 167.666 901.216 169L924.416 174C937.349 176.8 947.016 181.4 953.416 187.8C959.816 194.2 963.016 202.533 963.016 212.8C963.016 219.733 961.616 226 958.816 231.6C956.016 237.2 952.016 242 946.816 246C941.616 249.866 935.349 252.866 928.016 255C920.682 257.133 912.416 258.2 903.216 258.2Z" fill="white"/>
<path d="M749.117 256C742.85 256 738.05 254.4 734.717 251.2C731.517 247.867 729.917 243.133 729.917 237V134C729.917 127.867 731.517 123.2 734.717 120C738.05 116.667 742.85 115 749.117 115H816.917C821.717 115 825.317 116.2 827.717 118.6C830.117 121 831.317 124.467 831.317 129C831.317 133.667 830.117 137.267 827.717 139.8C825.317 142.2 821.717 143.4 816.917 143.4H765.117V170.2H812.517C817.184 170.2 820.717 171.4 823.117 173.8C825.65 176.2 826.917 179.733 826.917 184.4C826.917 189.067 825.65 192.6 823.117 195C820.717 197.4 817.184 198.6 812.517 198.6H765.117V227.6H816.917C821.717 227.6 825.317 228.867 827.717 231.4C830.117 233.8 831.317 237.267 831.317 241.8C831.317 246.467 830.117 250 827.717 252.4C825.317 254.8 821.717 256 816.917 256H749.117Z" fill="white"/>
<path d="M652.788 257.6C647.454 257.867 643.321 256.534 640.388 253.6C637.588 250.534 636.188 246.667 636.188 242C636.188 238.4 637.188 235.267 639.188 232.6C641.188 229.934 644.188 228.467 648.188 228.2L653.788 227.8C658.588 227.534 662.121 226.4 664.388 224.4C666.654 222.267 667.788 218.8 667.788 214V131.8C667.788 125.667 669.387 121.067 672.587 118C675.787 114.8 680.321 113.2 686.188 113.2C692.054 113.2 696.588 114.8 699.788 118C702.988 121.067 704.587 125.667 704.587 131.8V213.4C704.587 222.6 702.921 230.4 699.587 236.8C696.254 243.067 691.254 247.934 684.587 251.4C678.054 254.734 669.854 256.667 659.987 257.2L652.788 257.6Z" fill="white"/>
<path d="M502.142 257.8C498.009 257.8 494.542 256.867 491.742 255C488.942 253 487.209 250.334 486.542 247C485.875 243.534 486.475 239.667 488.342 235.4L538.142 128.2C540.542 123 543.475 119.2 546.942 116.8C550.542 114.4 554.609 113.2 559.142 113.2C563.675 113.2 567.609 114.4 570.942 116.8C574.409 119.2 577.409 123 579.942 128.2L629.742 235.4C631.875 239.667 632.609 243.534 631.942 247C631.409 250.467 629.742 253.134 626.942 255C624.275 256.867 620.942 257.8 616.942 257.8C611.609 257.8 607.475 256.6 604.542 254.2C601.742 251.8 599.209 247.934 596.942 242.6L586.142 217.2L600.142 227.4H517.742L531.942 217.2L521.142 242.6C518.742 247.934 516.275 251.8 513.742 254.2C511.209 256.6 507.342 257.8 502.142 257.8ZM558.742 153.4L535.542 208.8L529.942 199.2H588.142L582.542 208.8L559.142 153.4H558.742Z" fill="white"/>
<path d="M451.637 257.8C445.771 257.8 441.237 256.2 438.037 253C434.837 249.667 433.237 245 433.237 239V132C433.237 125.867 434.837 121.2 438.037 118C441.237 114.8 445.771 113.2 451.637 113.2C457.637 113.2 462.171 114.8 465.237 118C468.437 121.2 470.037 125.867 470.037 132V239C470.037 245 468.504 249.667 465.437 253C462.371 256.2 457.771 257.8 451.637 257.8Z" fill="white"/>
<path d="M346.4 257.8C341.333 257.8 337.2 256.734 334 254.6C330.933 252.467 328.333 249.067 326.2 244.4L277.8 137.6C275.667 132.934 275 128.734 275.8 125C276.6 121.267 278.467 118.4 281.4 116.4C284.333 114.267 288 113.2 292.4 113.2C297.867 113.2 301.933 114.4 304.6 116.8C307.4 119.2 309.8 122.734 311.8 127.4L352.6 221.8H341.4L382.2 127.2C384.2 122.534 386.6 119.067 389.4 116.8C392.2 114.4 396.133 113.2 401.2 113.2C405.333 113.2 408.8 114.267 411.6 116.4C414.4 118.4 416.133 121.267 416.8 125C417.6 128.734 416.933 132.934 414.8 137.6L366.2 244.4C364.2 249.067 361.667 252.467 358.6 254.6C355.533 256.734 351.467 257.8 346.4 257.8Z" fill="white"/>
<path fill-rule="evenodd" clip-rule="evenodd" d="M740.825 450.141C742.392 455.444 745.098 460.579 749.391 465.051L749.673 465.345L749.968 465.628C758.19 473.521 768.666 476 778.219 476H846.019C853.901 476 863.487 474.016 870.961 466.542C878.338 459.165 880.419 449.739 880.419 441.8C880.419 433.871 878.276 424.698 871.153 417.451C868.789 414.999 866.197 413.108 863.501 411.67C864.414 410.959 865.305 410.181 866.169 409.332C873.744 402.032 876.019 392.561 876.019 384.4C876.019 376.239 873.744 366.768 866.169 359.468C865.83 359.135 865.487 358.812 865.139 358.501C867.169 357.277 869.128 355.774 870.961 353.942L871.152 353.751L871.338 353.555C878.309 346.197 880.419 337.017 880.419 329C880.419 321.001 878.237 311.734 870.961 304.458C863.487 296.984 853.901 295 846.019 295H778.219C768.454 295 757.87 297.665 749.676 305.858C741.549 313.985 739.019 324.498 739.019 334V429.197C739.089 429.264 739.158 429.332 739.226 429.4C741.299 431.276 742.605 433.809 743.143 437C743.332 438.119 743.426 439.319 743.426 440.6C743.426 444.482 742.559 447.663 740.825 450.141ZM846.019 343.4C850.819 343.4 854.419 342.2 856.819 339.8C859.219 337.267 860.419 333.667 860.419 329C860.419 324.467 859.219 321 856.819 318.6C854.419 316.2 850.819 315 846.019 315H778.219C771.952 315 767.152 316.667 763.819 320C760.619 323.2 759.019 327.867 759.019 334V437C759.019 443.133 760.619 447.867 763.819 451.2C767.152 454.4 771.952 456 778.219 456H846.019C850.819 456 854.419 454.8 856.819 452.4C859.219 450 860.419 446.467 860.419 441.8C860.419 437.267 859.219 433.8 856.819 431.4C854.419 428.867 850.819 427.6 846.019 427.6H794.219V398.6H841.619C846.285 398.6 849.819 397.4 852.219 395C854.752 392.6 856.019 389.067 856.019 384.4C856.019 379.733 854.752 376.2 852.219 373.8C849.819 371.4 846.285 370.2 841.619 370.2H794.219V343.4H846.019Z" fill="#696C73"/>
<path fill-rule="evenodd" clip-rule="evenodd" d="M646.826 451.2C650.16 454.4 654.76 456 660.626 456H727.626C732.693 456 736.56 454.666 739.226 452C742.026 449.333 743.426 445.533 743.426 440.6C743.426 435.666 742.026 431.933 739.226 429.4C736.56 426.733 732.693 425.4 727.626 425.4H678.826V333.4C678.826 327.4 677.226 322.8 674.026 319.6C670.96 316.4 666.426 314.8 660.426 314.8C654.56 314.8 650.026 316.4 646.826 319.6C643.626 322.8 642.026 327.4 642.026 333.4V437.4C642.026 443.266 643.626 447.866 646.826 451.2ZM688.318 305.608C680.31 297.355 669.825 294.8 660.426 294.8C650.896 294.8 640.654 297.488 632.684 305.458C624.634 313.508 622.026 323.885 622.026 333.4V437.4C622.026 446.976 624.729 457.061 632.399 465.05L632.681 465.345L632.976 465.628C640.965 473.297 651.05 476 660.626 476H727.626C736.055 476 745.657 473.741 753.195 466.314C758.279 461.401 761.124 455.525 762.461 449.57C760.722 447.156 759.642 444.166 759.221 440.6C759.086 439.459 759.019 438.259 759.019 437V422.56C757.502 419.845 755.531 417.257 753.014 414.908C745.503 407.623 735.988 405.4 727.626 405.4H698.826V333.4C698.826 323.944 696.251 313.637 688.318 305.608Z" fill="#696C73"/>
<path fill-rule="evenodd" clip-rule="evenodd" d="M584.522 453C587.722 456.2 592.255 457.8 598.122 457.8C604.255 457.8 608.855 456.2 611.922 453C614.988 449.667 616.522 445 616.522 439V332C616.522 325.867 614.922 321.2 611.722 318C608.655 314.8 604.122 313.2 598.122 313.2C592.255 313.2 587.722 314.8 584.522 318C581.322 321.2 579.722 325.867 579.722 332V439C579.722 445 581.322 449.667 584.522 453ZM626.014 304.009C618.006 295.755 607.521 293.2 598.122 293.2C588.591 293.2 578.35 295.888 570.38 303.858C562.252 311.986 559.722 322.498 559.722 332V439C559.722 448.566 562.347 458.781 570.094 466.851L570.235 466.998L570.38 467.142C578.35 475.112 588.591 477.8 598.122 477.8C607.56 477.8 618.258 475.294 626.361 466.838L626.502 466.691L626.64 466.541C634.084 458.451 636.522 448.351 636.522 439V332C636.522 322.557 634.023 312.116 626.014 304.009Z" fill="#696C73"/>
<path fill-rule="evenodd" clip-rule="evenodd" d="M402.495 436.878V439C402.495 448.566 405.121 458.781 412.867 466.851L413.009 466.998L413.153 467.142C421.123 475.112 431.364 477.8 440.895 477.8C450.333 477.8 461.032 475.294 469.135 466.838L469.276 466.691L469.414 466.541C476.857 458.451 479.295 448.351 479.295 439V419.6H497.495V439C497.495 448.351 499.933 458.451 507.376 466.541L507.658 466.848L507.953 467.142C516.003 475.193 526.38 477.8 535.895 477.8C545.369 477.8 555.778 475.133 563.723 466.851C571.47 458.781 574.095 448.566 574.095 439V332C574.095 322.557 571.596 312.116 563.587 304.009C555.66 295.837 545.315 293.2 535.895 293.2C526.38 293.2 516.003 295.808 507.953 303.858L507.803 304.008L507.655 304.162C499.84 312.317 497.495 322.714 497.495 332V349.4H479.295V332C479.295 322.556 476.796 312.114 468.786 304.008C460.778 295.755 450.294 293.2 440.895 293.2C431.364 293.2 421.123 295.888 413.153 303.858C405.025 311.986 402.495 322.498 402.495 332V433.229C402.652 434.445 402.652 435.662 402.495 436.878ZM459.295 369.4V332C459.295 325.867 457.695 321.2 454.495 318C451.428 314.8 446.895 313.2 440.895 313.2C435.028 313.2 430.495 314.8 427.295 318C424.095 321.2 422.495 325.867 422.495 332V439C422.495 445 424.095 449.667 427.295 453C430.495 456.2 435.028 457.8 440.895 457.8C447.028 457.8 451.628 456.2 454.695 453C457.762 449.667 459.295 445 459.295 439V399.6H517.495V439C517.495 445 519.028 449.667 522.095 453C525.295 456.2 529.895 457.8 535.895 457.8C541.762 457.8 546.228 456.2 549.295 453C552.495 449.667 554.095 445 554.095 439V332C554.095 325.867 552.495 321.2 549.295 318C546.228 314.8 541.762 313.2 535.895 313.2C529.895 313.2 525.295 314.8 522.095 318C519.028 321.2 517.495 325.867 517.495 332V369.4H459.295Z" fill="#696C73"/>
<path fill-rule="evenodd" clip-rule="evenodd" d="M315.8 449.2C327 455.2 340.4 458.2 356 458.2C362.8 458.2 369.6 457.4 376.4 455.8C383.334 454.2 389.134 452 393.8 449.2C397.267 447.333 399.667 444.866 401 441.8C402.467 438.733 402.934 435.666 402.4 432.6C401.867 429.4 400.6 426.6 398.6 424.2C396.734 421.8 394.2 420.2 391 419.4C387.934 418.6 384.4 419.066 380.4 420.8C376.534 422.666 372.6 424.066 368.6 425C364.6 425.8 360.867 426.2 357.4 426.2C349.134 426.2 342.2 424.666 336.6 421.6C331.134 418.4 327 413.8 324.2 407.8C321.4 401.666 320 394.2 320 385.4C320 376.6 321.4 369.2 324.2 363.2C327 357.2 331.134 352.666 336.6 349.6C342.2 346.4 349.134 344.8 357.4 344.8C361.667 344.8 365.734 345.333 369.6 346.4C373.6 347.333 377.6 348.733 381.6 350.6C385.067 352.333 388.267 352.8 391.2 352C394.134 351.066 396.534 349.333 398.4 346.8C400.267 344.266 401.4 341.4 401.8 338.2C402.334 335 401.867 331.866 400.4 328.8C398.934 325.733 396.334 323.2 392.6 321.2C387.534 318.4 381.667 316.333 375 315C368.467 313.533 362.134 312.8 356 312.8C344.4 312.8 333.934 314.533 324.6 318C315.4 321.333 307.534 326.2 301 332.6C294.6 339 289.667 346.666 286.2 355.6C282.867 364.533 281.2 374.466 281.2 385.4C281.2 400.066 284.134 412.866 290 423.8C296 434.733 304.6 443.2 315.8 449.2ZM379.155 295.435C371.39 293.708 363.661 292.8 356 292.8C342.437 292.8 329.587 294.824 317.711 299.223C306.044 303.462 295.703 309.791 287.005 318.313L286.931 318.385L286.858 318.458C278.379 326.936 271.967 336.996 267.555 348.364L267.508 348.486L267.462 348.608C263.181 360.08 261.2 372.425 261.2 385.4C261.2 402.766 264.689 418.928 272.377 433.256L272.422 433.339L272.467 433.422C280.367 447.818 291.809 459.036 306.356 466.829C321.05 474.702 337.846 478.2 356 478.2C364.371 478.2 372.695 477.215 380.942 475.277C389.158 473.378 396.9 470.596 403.716 466.572C410.13 463.02 415.818 457.647 419.191 450.116C420.98 446.287 422.137 442.176 422.496 437.896V432.212C422.413 431.229 422.288 430.24 422.117 429.247C421.034 422.813 418.399 416.81 414.172 411.647C409.366 405.598 402.953 401.793 395.95 400.022C387.228 397.776 379.003 399.608 372.448 402.449L372.073 402.611L371.705 402.789C369.207 403.995 366.761 404.867 364.354 405.452C361.571 405.99 359.271 406.2 357.4 406.2C351.775 406.2 348.409 405.195 346.455 404.19C344.793 403.161 343.463 401.752 342.359 399.418C341.07 396.556 340 392.111 340 385.4C340 378.606 341.096 374.289 342.324 371.658C343.459 369.225 344.783 367.942 346.385 367.043L346.454 367.004L346.523 366.965C348.364 365.912 351.654 364.8 357.4 364.8C359.984 364.8 362.254 365.12 364.282 365.68L364.667 365.786L365.056 365.877C367.557 366.46 370.187 367.359 372.958 368.638C379.528 371.855 387.724 373.678 396.463 371.295L396.866 371.185L397.264 371.058C404.313 368.815 410.191 364.513 414.501 358.664C418.371 353.412 420.736 347.435 421.595 341.074C422.726 333.766 421.533 326.632 418.443 320.171C414.753 312.456 408.669 307.145 402.166 303.635C395.115 299.755 387.366 297.098 379.155 295.435Z" fill="#696C73"/>
<path fill-rule="evenodd" clip-rule="evenodd" d="M868.015 220.4C873.082 222.8 878.815 224.666 885.215 226C891.615 227.333 897.615 228 903.215 228C912.015 228 918.149 226.866 921.615 224.6C925.215 222.2 927.015 219.266 927.015 215.8C927.015 212.733 925.749 210.266 923.215 208.4C920.815 206.533 916.482 204.933 910.215 203.6L886.815 198.6C874.015 195.933 864.482 191.266 858.215 184.6C851.949 177.933 848.815 169.333 848.815 158.8C848.815 151.866 850.215 145.6 853.015 140C855.949 134.266 860.015 129.4 865.215 125.4C870.549 121.4 876.815 118.333 884.015 116.2C891.349 113.933 899.482 112.8 908.415 112.8C915.349 112.8 922.349 113.6 929.415 115.2C936.615 116.666 942.815 118.933 948.015 122C951.082 123.6 953.282 125.8 954.615 128.6C955.949 131.4 956.482 134.333 956.215 137.4C955.949 140.333 954.882 142.933 953.015 145.2C951.282 147.466 948.882 149 945.815 149.8C942.882 150.466 939.349 149.933 935.215 148.2C931.349 146.466 926.949 145.2 922.015 144.4C917.215 143.466 912.549 143 908.015 143C903.082 143 898.882 143.6 895.415 144.8C891.949 145.866 889.282 147.466 887.415 149.6C885.682 151.733 884.815 154.2 884.815 157C884.815 159.8 885.949 162.2 888.215 164.2C890.615 166.066 894.949 167.666 901.215 169L924.415 174C937.349 176.8 947.015 181.4 953.415 187.8C959.815 194.2 963.015 202.533 963.015 212.8C963.015 219.733 961.615 226 958.815 231.6C956.015 237.2 952.015 242 946.815 246C941.615 249.866 935.349 252.866 928.015 255C920.682 257.133 912.415 258.2 903.215 258.2C897.882 258.2 892.282 257.8 886.415 257C880.682 256.333 875.215 255.266 870.015 253.8C864.815 252.333 860.149 250.6 856.015 248.6C852.415 246.866 849.882 244.6 848.415 241.8C846.949 238.866 846.415 235.8 846.815 232.6C847.215 229.4 848.349 226.6 850.215 224.2C852.082 221.666 854.549 220 857.615 219.2C860.682 218.266 864.149 218.666 868.015 220.4ZM847.185 201.74C845.958 200.65 844.776 199.504 843.643 198.298C833.362 187.361 828.815 173.597 828.815 158.8C828.815 149.1 830.795 139.72 835.127 131.056L835.168 130.973L835.21 130.89C839.518 122.471 845.52 115.317 853.021 109.547L853.118 109.473L853.215 109.4C860.643 103.829 869.072 99.7808 878.221 97.0574C887.718 94.1357 897.841 92.7998 908.415 92.7998C916.83 92.7998 925.241 93.764 933.623 95.6464C942.298 97.433 950.458 100.294 957.768 104.534C964.002 107.904 969.347 113.018 972.673 120.001C975.525 125.992 976.718 132.489 976.14 139.132L976.137 139.171L976.133 139.21C975.515 146.016 972.971 152.32 968.675 157.642C965.77 161.354 962.257 164.188 958.406 166.231C961.703 168.406 964.77 170.87 967.557 173.658C978.223 184.324 983.015 198.005 983.015 212.8C983.015 222.5 981.036 231.88 976.704 240.544C972.487 248.977 966.488 256.1 959.01 261.852L958.88 261.952L958.749 262.049C951.331 267.566 942.822 271.521 933.602 274.204C924.127 276.96 913.933 278.2 903.215 278.2C896.948 278.2 890.506 277.735 883.908 276.843C877.261 276.06 870.813 274.805 864.586 273.049C858.458 271.32 852.674 269.199 847.326 266.614C840.89 263.512 834.632 258.589 830.699 251.08L830.611 250.913L830.527 250.744C830.294 250.277 830.071 249.807 829.858 249.334C830.831 247.282 831.317 244.771 831.317 241.8C831.317 237.266 830.117 233.8 827.717 231.4C827.461 231.13 827.192 230.874 826.909 230.633C826.928 230.462 826.948 230.291 826.97 230.119C827.778 223.654 830.156 217.492 834.271 212.124C837.704 207.539 842.102 204.026 847.185 201.74Z" fill="#696C73"/>
<path fill-rule="evenodd" clip-rule="evenodd" d="M720.572 265.345L720.289 265.051C712.468 256.904 709.917 246.558 709.917 237V134C709.917 124.498 712.447 113.985 720.575 105.858C728.768 97.6648 739.353 95 749.117 95H816.917C824.8 95 834.386 96.9843 841.859 104.458C849.136 111.734 851.317 121.001 851.317 129C851.317 137.017 849.207 146.197 842.236 153.555L842.05 153.751L841.859 153.942C840.027 155.774 838.068 157.277 836.038 158.501C836.385 158.812 836.729 159.135 837.068 159.468C844.643 166.768 846.917 176.239 846.917 184.4C846.917 192.561 844.643 202.032 837.068 209.332C836.204 210.181 835.313 210.959 834.399 211.67C837.096 213.108 839.687 214.998 842.051 217.451C844.941 220.392 847.012 223.65 848.452 227.013C847.614 228.716 847.068 230.578 846.815 232.6C846.415 235.8 846.949 238.867 848.415 241.8C849.101 243.109 850.02 244.302 851.173 245.378C850.593 252.46 848.155 260.247 841.859 266.542C834.386 274.016 824.8 276 816.917 276H749.117C739.564 276 729.088 273.521 720.866 265.628L720.572 265.345ZM827.717 231.4C825.317 228.867 821.717 227.6 816.917 227.6H765.117V198.6H812.517C817.184 198.6 820.717 197.4 823.117 195C825.65 192.6 826.917 189.067 826.917 184.4C826.917 179.733 825.65 176.2 823.117 173.8C820.717 171.4 817.184 170.2 812.517 170.2H765.117V143.4H816.917C821.717 143.4 825.317 142.2 827.717 139.8C830.117 137.267 831.317 133.667 831.317 129C831.317 124.467 830.117 121 827.717 118.6C825.317 116.2 821.717 115 816.917 115H749.117C742.85 115 738.05 116.667 734.717 120C731.517 123.2 729.917 127.867 729.917 134V237C729.917 243.133 731.517 247.867 734.717 251.2C738.05 254.4 742.85 256 749.117 256H816.917C821.717 256 825.317 254.8 827.717 252.4C830.117 250 831.317 246.467 831.317 241.8C831.317 237.267 830.117 233.8 827.717 231.4Z" fill="#696C73"/>
<path fill-rule="evenodd" clip-rule="evenodd" d="M653.842 277.572L653.786 277.575C644.532 278.038 634.251 275.748 626.245 267.742L625.924 267.421L625.618 267.086C622.968 264.183 620.923 261.011 619.427 257.671C622.343 257.356 624.848 256.466 626.942 255C629.742 253.134 631.409 250.467 631.942 247C632.247 245.417 632.259 243.75 631.98 242C631.647 239.918 630.901 237.718 629.742 235.4L622.99 220.866C623.056 220.777 623.121 220.689 623.188 220.6C629.38 212.344 638.295 208.828 646.802 208.248C646.82 208.247 646.839 208.246 646.857 208.244L647.788 208.178V131.8C647.788 122.42 650.263 111.795 658.595 103.709C666.543 95.8545 676.716 93.2002 686.188 93.2002C695.659 93.2002 705.832 95.8546 713.78 103.709C722.112 111.794 724.588 122.42 724.588 131.8V213.4C724.588 224.956 722.497 236.109 717.326 246.039L717.286 246.116L717.245 246.192C711.897 256.247 703.849 263.926 693.815 269.145L693.746 269.18L693.677 269.215C683.951 274.178 672.814 276.535 661.075 277.171C661.072 277.171 661.07 277.171 661.067 277.171L653.842 277.572ZM659.988 257.2C669.854 256.667 678.054 254.734 684.588 251.4C691.254 247.934 696.254 243.067 699.588 236.8C702.921 230.4 704.588 222.6 704.588 213.4V131.8C704.588 125.667 702.988 121.067 699.788 118C696.588 114.8 692.054 113.2 686.188 113.2C680.321 113.2 675.788 114.8 672.588 118C669.388 121.067 667.788 125.667 667.788 131.8V214C667.788 218.8 666.654 222.267 664.388 224.4C662.121 226.4 658.588 227.534 653.788 227.8L648.188 228.2C644.188 228.467 641.188 229.934 639.188 232.6C637.188 235.267 636.188 238.4 636.188 242C636.188 246.667 637.588 250.534 640.388 253.6C643.321 256.534 647.454 257.867 652.788 257.6L659.988 257.2Z" fill="#696C73"/>
<path fill-rule="evenodd" clip-rule="evenodd" d="M480.38 271.462L480.117 271.275C473.274 266.387 468.655 259.378 466.957 251.052C466.99 251.001 467.024 250.949 467.057 250.897C467.093 250.841 467.129 250.784 467.165 250.727C467.798 249.709 468.327 248.6 468.751 247.4C469.609 244.973 470.037 242.173 470.037 239V227.342L470.109 227.178L519.983 119.819C519.986 119.812 519.989 119.805 519.993 119.797C523.374 112.479 528.29 105.388 535.558 100.356L535.702 100.257L535.848 100.159C542.895 95.4611 550.859 93.2002 559.142 93.2002C567.355 93.2002 575.425 95.4334 582.479 100.463C589.541 105.402 594.444 112.303 597.922 119.441L598.003 119.607L647.774 226.745C648.006 227.217 648.232 227.695 648.452 228.181L648.187 228.2C644.679 228.434 641.939 229.591 639.969 231.672C639.694 231.963 639.433 232.273 639.187 232.6C637.187 235.267 636.187 238.4 636.187 242C636.187 243.938 636.429 245.738 636.912 247.4C636.949 247.528 636.988 247.656 637.028 247.783C637.05 247.852 637.072 247.922 637.095 247.991C637.792 250.09 638.889 251.96 640.387 253.6C642.714 255.927 645.795 257.247 649.631 257.56C647.351 263.104 643.523 267.929 638.226 271.514C631.541 276.128 624.029 277.8 616.942 277.8C608.843 277.8 599.593 275.992 591.877 269.679L591.7 269.534L591.526 269.385C586.267 264.878 582.543 259.041 579.787 253.216L579.674 253.41L577.135 247.4H541.06L538.488 253.543L538.274 253.177C535.577 258.743 532.122 264.338 527.497 268.719C519.779 276.031 509.994 277.8 502.142 277.8C494.968 277.8 487.415 276.153 480.648 271.641L480.38 271.462ZM518.745 247.4C519.551 245.96 520.35 244.36 521.142 242.6L527.605 227.4H590.479L596.942 242.6C597.69 244.36 598.467 245.96 599.273 247.4C600.909 250.325 602.666 252.592 604.542 254.2C607.475 256.6 611.609 257.8 616.942 257.8C620.942 257.8 624.275 256.867 626.942 255C629.633 253.206 631.278 250.673 631.875 247.4C631.899 247.268 631.921 247.135 631.942 247C632.609 243.534 631.875 239.667 629.742 235.4L579.942 128.2C577.409 123 574.409 119.2 570.942 116.8C567.609 114.4 563.675 113.2 559.142 113.2C554.609 113.2 550.542 114.4 546.942 116.8C543.475 119.2 540.542 123 538.142 128.2L488.342 235.4C486.475 239.667 485.875 243.534 486.542 247C486.569 247.135 486.598 247.268 486.628 247.4C487.35 250.548 489.055 253.081 491.742 255C494.542 256.867 498.009 257.8 502.142 257.8C507.342 257.8 511.209 256.6 513.742 254.2C515.44 252.592 517.107 250.325 518.745 247.4ZM559.142 153.4H558.742L539.562 199.2H578.487L559.142 153.4Z" fill="#696C73"/>
<path fill-rule="evenodd" clip-rule="evenodd" d="M423.751 266.998L423.61 266.851C415.863 258.781 413.237 248.566 413.237 239V141.034L414.8 137.6C415.69 135.652 416.325 133.786 416.705 132C417.234 129.508 417.266 127.175 416.8 125C416.442 122.997 415.777 121.243 414.805 119.739C416.352 114.085 419.183 108.57 423.895 103.858C431.865 95.8881 442.106 93.2002 451.637 93.2002C461.036 93.2002 471.521 95.755 479.528 104.008C487.538 112.115 490.037 122.556 490.037 132V231.751L488.342 235.4C487.802 236.634 487.369 237.834 487.041 239C486.234 241.869 486.068 244.536 486.542 247C486.882 248.699 487.499 250.225 488.393 251.578C486.912 256.872 484.315 262.02 480.156 266.541L480.018 266.691L479.877 266.838C471.774 275.294 461.075 277.8 451.637 277.8C442.106 277.8 431.865 275.112 423.895 267.142L423.751 266.998ZM465.237 118C462.171 114.8 457.637 113.2 451.637 113.2C445.771 113.2 441.237 114.8 438.037 118C434.837 121.2 433.237 125.867 433.237 132V239C433.237 245 434.837 249.667 438.037 253C441.237 256.2 445.771 257.8 451.637 257.8C457.771 257.8 462.371 256.2 465.437 253C468.504 249.667 470.037 245 470.037 239V132C470.037 125.867 468.437 121.2 465.237 118Z" fill="#696C73"/>
<path fill-rule="evenodd" clip-rule="evenodd" d="M322.741 271.131L322.579 271.018C315.671 266.213 311.1 259.474 308.01 252.715L307.997 252.686L259.61 145.915C259.605 145.904 259.6 145.893 259.595 145.882C256.291 138.64 254.28 129.972 256.244 120.81C258.011 112.563 262.513 105.169 269.88 100.05C276.849 95.0707 284.782 93.2002 292.4 93.2002C300.24 93.2002 309.969 94.8422 317.786 101.762C323.514 106.73 327.42 113.085 330.17 119.491C330.174 119.502 330.178 119.512 330.183 119.522L346.974 158.373L363.817 119.322C363.82 119.314 363.823 119.307 363.827 119.299C366.582 112.877 370.582 106.378 376.606 101.427C384.144 95.0793 393.221 93.2002 401.2 93.2002C408.83 93.2002 416.67 95.2135 423.479 100.309C430.442 105.381 434.576 112.488 436.237 120.205C436.08 120.442 435.929 120.684 435.784 120.932C435.641 121.177 435.504 121.428 435.374 121.683C433.949 124.47 433.237 127.909 433.237 132V145.365C433.158 145.543 433.078 145.721 432.997 145.898C432.995 145.904 432.992 145.91 432.989 145.915L384.486 252.503C381.521 259.342 377.002 266.162 370.021 271.018C362.598 276.182 354.126 277.8 346.4 277.8C338.618 277.8 330.286 276.161 322.906 271.241L322.741 271.131ZM366.2 244.4L414.8 137.6C416.933 132.934 417.6 128.734 416.8 125C416.133 121.267 414.4 118.4 411.6 116.4C408.8 114.267 405.333 113.2 401.2 113.2C396.133 113.2 392.2 114.4 389.4 116.8C386.6 119.067 384.2 122.534 382.2 127.2L346.994 208.83L311.8 127.4C309.8 122.734 307.4 119.2 304.6 116.8C301.933 114.4 297.867 113.2 292.4 113.2C288 113.2 284.333 114.267 281.4 116.4C278.467 118.4 276.6 121.267 275.8 125C275 128.734 275.667 132.934 277.8 137.6L326.2 244.4C328.333 249.067 330.933 252.467 334 254.6C337.2 256.734 341.333 257.8 346.4 257.8C351.467 257.8 355.533 256.734 358.6 254.6C361.667 252.467 364.2 249.067 366.2 244.4Z" fill="#696C73"/>
<defs>
<clipPath id="clip0_575_2961">
<rect width="512" height="512" fill="white"/>
</clipPath>
</defs>
</svg>
