<svg width="151" height="21" viewBox="0 0 151 21" fill="none" xmlns="http://www.w3.org/2000/svg">
<path d="M145.383 6.50215C145.334 5.86844 145.105 5.37414 144.694 5.01926C144.29 4.66438 143.674 4.48694 142.848 4.48694C142.321 4.48694 141.889 4.55348 141.552 4.68656C141.221 4.81331 140.976 4.98758 140.817 5.20938C140.658 5.43118 140.575 5.68466 140.569 5.96984C140.557 6.20431 140.597 6.4166 140.689 6.60672C140.787 6.79049 140.94 6.95843 141.148 7.11052C141.356 7.25627 141.623 7.38935 141.947 7.50976C142.272 7.63016 142.658 7.7379 143.105 7.83295L144.648 8.17516C145.69 8.4033 146.581 8.70431 147.322 9.0782C148.063 9.45209 148.669 9.89252 149.141 10.3995C149.613 10.9001 149.959 11.4641 150.179 12.0915C150.406 12.7189 150.522 13.4033 150.528 14.1447C150.522 15.4248 150.213 16.5085 149.6 17.3957C148.988 18.2829 148.112 18.9578 146.973 19.4204C145.84 19.883 144.477 20.1143 142.884 20.1143C141.249 20.1143 139.822 19.864 138.603 19.3634C137.39 18.8627 136.447 18.0928 135.773 17.0535C135.106 16.0079 134.769 14.6707 134.763 13.0421H139.614C139.644 13.6378 139.788 14.1384 140.045 14.544C140.303 14.9496 140.664 15.2569 141.13 15.466C141.601 15.6752 142.162 15.7797 142.811 15.7797C143.356 15.7797 143.812 15.71 144.18 15.5706C144.547 15.4312 144.826 15.2379 145.016 14.9907C145.206 14.7436 145.304 14.4616 145.31 14.1447C145.304 13.8469 145.209 13.5871 145.025 13.3653C144.847 13.1371 144.553 12.9343 144.143 12.7569C143.733 12.5731 143.178 12.402 142.48 12.2436L140.606 11.8253C138.94 11.4515 137.626 10.8272 136.664 9.95272C135.709 9.07186 135.234 7.87098 135.24 6.35006C135.234 5.11432 135.553 4.03384 136.196 3.10862C136.845 2.17706 137.742 1.45146 138.888 0.931811C140.039 0.412166 141.359 0.152344 142.848 0.152344C144.367 0.152344 145.68 0.415335 146.789 0.941317C147.898 1.4673 148.752 2.20874 149.352 3.16565C149.959 4.11622 150.265 5.22839 150.271 6.50215H145.383Z" fill="white"/>
<path d="M132.877 10.1523C132.877 12.3196 132.47 14.1479 131.655 15.6371C130.841 17.12 129.741 18.2449 128.357 19.0117C126.973 19.7721 125.429 20.1523 123.727 20.1523C122.012 20.1523 120.462 19.7689 119.078 19.0022C117.7 18.229 116.603 17.101 115.789 15.6181C114.98 14.1289 114.576 12.307 114.576 10.1523C114.576 7.98504 114.98 6.15995 115.789 4.67706C116.603 3.18783 117.7 2.06299 119.078 1.30253C120.462 0.53574 122.012 0.152344 123.727 0.152344C125.429 0.152344 126.973 0.53574 128.357 1.30253C129.741 2.06299 130.841 3.18783 131.655 4.67706C132.47 6.15995 132.877 7.98504 132.877 10.1523ZM127.622 10.1523C127.622 8.98631 127.472 8.00406 127.172 7.20558C126.878 6.40076 126.44 5.79239 125.858 5.38048C125.282 4.96223 124.572 4.7531 123.727 4.7531C122.881 4.7531 122.168 4.96223 121.586 5.38048C121.01 5.79239 120.572 6.40076 120.272 7.20558C119.978 8.00406 119.831 8.98631 119.831 10.1523C119.831 11.3184 119.978 12.3038 120.272 13.1086C120.572 13.9071 121.01 14.5155 121.586 14.9337C122.168 15.3456 122.881 15.5516 123.727 15.5516C124.572 15.5516 125.282 15.3456 125.858 14.9337C126.44 14.5155 126.878 13.9071 127.172 13.1086C127.472 12.3038 127.622 11.3184 127.622 10.1523Z" fill="white"/>
<path d="M97.3682 19.8896V0.421875H105.49C106.886 0.421875 108.108 0.684866 109.156 1.21085C110.203 1.73683 111.018 2.49412 111.599 3.48271C112.181 4.47131 112.472 5.65635 112.472 7.03784C112.472 8.43201 112.172 9.60755 111.572 10.5645C110.978 11.5214 110.142 12.2438 109.064 12.7318C107.992 13.2197 106.739 13.4637 105.306 13.4637H100.455V9.35724H104.277C104.877 9.35724 105.389 9.28119 105.811 9.1291C106.24 8.97067 106.568 8.72035 106.794 8.37815C107.027 8.03594 107.144 7.58918 107.144 7.03784C107.144 6.48018 107.027 6.02707 106.794 5.67853C106.568 5.32365 106.24 5.06383 105.811 4.89906C105.389 4.72796 104.877 4.64241 104.277 4.64241H102.476V19.8896H97.3682ZM108.393 10.9542L113.097 19.8896H107.548L102.954 10.9542H108.393Z" fill="white"/>
<path d="M76.5105 19.8896H70.998L77.2087 0.421875H84.1911L90.4018 19.8896H84.8894L80.7734 5.78309H80.6264L76.5105 19.8896ZM75.4815 12.2089H85.8448V16.1633H75.4815V12.2089Z" fill="white"/>
<path d="M69.2019 0.421875V19.8896H64.0938V0.421875H69.2019Z" fill="white"/>
<path d="M48.6474 0.421875L52.5061 14.1481H52.6531L56.5118 0.421875H62.2814L56.0708 19.8896H49.0884L42.8777 0.421875H48.6474Z" fill="white"/>
<path d="M41.0816 0.421875V19.8896H35.9734V0.421875H41.0816Z" fill="white"/>
<path d="M21.1931 19.8896V0.421875H26.3013V15.631H33.9084V19.8896H21.1931Z" fill="white"/>
<path d="M18.8296 10.1523C18.8296 12.3196 18.4223 14.1479 17.6077 15.6371C16.793 17.12 15.6936 18.2449 14.3094 19.0117C12.9252 19.7721 11.3817 20.1523 9.67895 20.1523C7.96397 20.1523 6.41437 19.7689 5.03014 19.0022C3.65203 18.229 2.55567 17.101 1.74105 15.6181C0.932565 14.1289 0.52832 12.307 0.52832 10.1523C0.52832 7.98504 0.932565 6.15995 1.74105 4.67706C2.55567 3.18783 3.65203 2.06299 5.03014 1.30253C6.41437 0.53574 7.96397 0.152344 9.67895 0.152344C11.3817 0.152344 12.9252 0.53574 14.3094 1.30253C15.6936 2.06299 16.793 3.18783 17.6077 4.67706C18.4223 6.15995 18.8296 7.98504 18.8296 10.1523ZM13.5744 10.1523C13.5744 8.98631 13.4243 8.00406 13.1242 7.20558C12.8302 6.40076 12.3923 5.79239 11.8104 5.38048C11.2347 4.96223 10.5242 4.7531 9.67895 4.7531C8.83371 4.7531 8.12016 4.96223 7.53829 5.38048C6.96255 5.79239 6.52461 6.40076 6.22449 7.20558C5.9305 8.00406 5.7835 8.98631 5.7835 10.1523C5.7835 11.3184 5.9305 12.3038 6.22449 13.1086C6.52461 13.9071 6.96255 14.5155 7.53829 14.9337C8.12016 15.3456 8.83371 15.5516 9.67895 15.5516C10.5242 15.5516 11.2347 15.3456 11.8104 14.9337C12.3923 14.5155 12.8302 13.9071 13.1242 13.1086C13.4243 12.3038 13.5744 11.3184 13.5744 10.1523Z" fill="white"/>
</svg>
